<svg width="22" height="22" viewBox="0 0 22 22" fill="none" xmlns="http://www.w3.org/2000/svg">
<path d="M18.5625 5.5H3.4375C2.29841 5.5 1.375 6.42341 1.375 7.5625V17.1875C1.375 18.3266 2.29841 19.25 3.4375 19.25H18.5625C19.7016 19.25 20.625 18.3266 20.625 17.1875V7.5625C20.625 6.42341 19.7016 5.5 18.5625 5.5Z" stroke="#12130F" stroke-width="1.5" stroke-linejoin="round"/>
<path d="M6.1875 5.5V4.125C6.1875 3.76033 6.33237 3.41059 6.59023 3.15273C6.84809 2.89487 7.19783 2.75 7.5625 2.75H14.4375C14.8022 2.75 15.1519 2.89487 15.4098 3.15273C15.6676 3.41059 15.8125 3.76033 15.8125 4.125V5.5M20.625 10.3125H1.375M13.75 10.3125V11.3438C13.75 11.4349 13.7138 11.5224 13.6493 11.5868C13.5849 11.6513 13.4974 11.6875 13.4062 11.6875H8.59375C8.50258 11.6875 8.41515 11.6513 8.35068 11.5868C8.28622 11.5224 8.25 11.4349 8.25 11.3438V10.3125" stroke="#12130F" stroke-width="1.5" stroke-linecap="round" stroke-linejoin="round"/>
</svg>
